# xmcd
#
# Track frame offsets:
# 150
# 18567
# 29680
# 44227
# 61180
# 76400
# 91182
# 103190
#
# Disc length: 1512 seconds
#
#
# Revision: 0
# Processed by: cddbd v1.5.2PL0 Copyright (c) Steve Scherf et al.
# Submitted via: FreeRIP 2.951 
#
DISCID=6705e608
DTITLE=Rusty Nails - More Than 500 Miles
DYEAR=1900
DGENRE=Country
TTITLE0=Old Hippie
TTITLE1=That´s what I like about you
TTITLE2=Cry on the shoulder of the road
TTITLE3=Take it easy
TTITLE4=Teach your Children
TTITLE5=Five hundred miles
TTITLE6=Jackson
TTITLE7=Mecedes Benz
EXTD=
EXTT0=
EXTT1=
EXTT2=
EXTT3=
EXTT4=
EXTT5=
EXTT6=
EXTT7=
PLAYORDER=
